<?xml version="1.0" standalone="no"?>
<!DOCTYPE svg PUBLIC "-//W3C//DTD SVG 20010904//EN"
 "http://www.w3.org/TR/2001/REC-SVG-20010904/DTD/svg10.dtd">
<svg version="1.0" xmlns="http://www.w3.org/2000/svg"
 width="130.000000pt" height="130.000000pt" viewBox="0 0 130.000000 130.000000"
 preserveAspectRatio="xMidYMid meet">

<g transform="translate(0.000000,130.000000) scale(0.100000,-0.100000)"
fill="#000000" stroke="none">
<path d="M665 1105 c-32 -53 -28 -84 16 -144 16 -23 28 -41 27 -41 -2 0 -27 9
-56 20 -157 60 -290 -12 -383 -205 -51 -105 -72 -192 -72 -290 0 -97 13 -149
52 -202 105 -145 393 -103 593 85 87 83 118 143 118 233 0 53 -6 77 -28 122
l-28 56 49 20 c62 26 83 26 130 1 20 -11 47 -20 60 -20 23 0 47 17 47 32 0 15
-122 98 -161 109 -27 9 -36 16 -29 23 5 7 14 33 20 60 9 43 8 54 -14 101 -24
52 -60 85 -76 68 -5 -4 -16 -37 -25 -73 -9 -36 -23 -76 -32 -89 -15 -24 -16
-24 -27 -4 -6 11 -26 33 -44 48 -19 16 -47 52 -64 82 -16 29 -34 53 -39 53 -4
0 -20 -20 -34 -45z m155 -182 c0 -16 6 -23 20 -23 30 0 64 39 84 95 35 99 31
94 49 58 32 -61 18 -119 -37 -153 -54 -33 -47 -48 22 -47 59 1 123 -24 151
-57 12 -15 11 -15 -15 -1 -40 21 -99 19 -162 -5 l-52 -20 -59 53 c-32 28 -61
63 -64 77 -3 14 -22 49 -41 78 -34 49 -44 81 -30 95 11 11 133 -126 134 -150z
m-171 -24 c63 -28 175 -123 222 -187 92 -129 74 -241 -57 -361 -73 -67 -139
-105 -237 -136 -122 -39 -213 -30 -275 28 -113 105 -87 377 54 568 82 112 175
140 293 88z"/>
<path d="M457 792 c-21 -23 -22 -52 -2 -52 18 0 49 45 40 60 -9 15 -20 12 -38
-8z"/>
<path d="M645 704 c-12 -19 -14 -29 -6 -37 15 -15 56 25 48 47 -9 23 -22 20
-42 -10z"/>
<path d="M416 585 c-15 -23 -15 -26 -1 -31 20 -8 45 13 45 37 0 27 -25 23 -44
-6z"/>
<path d="M776 534 c-13 -19 -15 -29 -7 -37 14 -14 51 18 51 45 0 26 -22 22
-44 -8z"/>
<path d="M607 422 c-23 -25 -21 -42 3 -42 18 0 40 26 40 49 0 17 -25 13 -43
-7z"/>
<path d="M395 370 c-17 -19 -15 -50 4 -50 12 0 41 40 41 57 0 19 -25 16 -45
-7z"/>
</g>
</svg>
